<svg xmlns="http://www.w3.org/2000/svg" id="kitchen" viewBox="0 0 24 24" height="23px">
          <path d="M3.75609756 2.30352304c0-.67247968.5415622-1.2195122 1.20731707-1.2195122.66575488 0 1.20731708.54703252 1.20731708 1.2195122v.00542005c0 .29634791.24023745.53658537.53658536.53658537.29634792 0 .53658537-.24023746.53658537-.53658537v-.00542005C7.24390244 1.03333062 6.22077366 0 4.96341463 0c-1.25735902 0-2.2804878 1.03333062-2.2804878 2.30352304v3.14363143H.5c-.27614237 0-.5.22385763-.5.5V19.0392954c0 .2761424.22385763.5.5.5h21c.2761424 0 .5-.2238576.5-.5V5.94715447c0-.27614237-.2238576-.5-.5-.5H3.75609756V2.30352304zm7.78048784 4.22764227h9.3902439v2.16802168h-9.3902439V6.53116531zm0 3.25203252h9.3902439v8.67208677h-9.3902439V9.78319783zm-1.0731708-3.25203252V18.4552846H1.07317073V6.53116531h9.39024387zM13.1097561 17.100271c-.2761424 0-.5-.2238576-.5-.5v-3.3360434c0-.2761423.2238576-.5.5-.5h6.2439024c.2761424 0 .5.2238577.5.5v3.3360434c0 .2761424-.2238576.5-.5.5h-6.2439024zm.5731707-3.2520325v2.1680217h5.097561v-2.1680217h-5.097561z" fill="#000" fillrule="nonzero"></path>
        </svg>